<?xml version="1.0" encoding="utf-8"?>
<!-- Uploaded to: SVG Repo, www.svgrepo.com, Generator: SVG Repo Mixer Tools -->
<svg width="800px" height="800px" viewBox="-23.28 0 334.602 334.602" xmlns="http://www.w3.org/2000/svg"><defs><style>.a{fill:#5394cf;}.b{fill:#ffffff;}.c{fill:#211715;}.d{fill:#7a7473;}</style></defs><path class="a" d="M230.4,159.242c-2.34-8.67-6.61-12.82-14.75-16.54-9.142-4.178-19.657-7.824-27.865-12.157a42.984,42.984,0,0,0-7.335-5.863c-3.65,15.66-10.14,32.56-15.29,47.8q-5.357,15.855-10.7,31.7l-10.7-31.7c-5.145-15.237-11.636-32.142-15.289-47.8a43.285,43.285,0,0,0-7.417,5.953c-9.578,4.261-21.744,8.785-31.525,13.725A38.99,38.99,0,0,0,73.2,159.79c-2.114,3.7-4.1,7.7-6.051,11.409-3.5,6.647-11.306,24.091-14.865,32.921-2.015,5-4.135,10.121-5.163,15.753-1.75,9.584,9.343,25.107,18.283,28.217l30.1-15.7c-2.434-3.656-4.489-6.6-6.18-8.73-3.39-4.269-4.92-4.86-2.38-10.08a105.806,105.806,0,0,1,7.738-12.012l.652-.675c.96,11.559,1.973,23.688,2.777,35.236,0,0,.089,1.1.192,2.441,22.738-.019,77.455-.038,101.661-.048a13.468,13.468,0,0,0,4.43,2.14c3.36.92,12.56.51,17.34-2.9,4.44-3.18,7.36-6.94,8.78-14.94,3.32-18.77,2.8-33.87,1.62-50.34a99.273,99.273,0,0,0-1.74-13.32"/><path class="b" d="M155.562,260.642c-9.667-6.185-21.137-8.041-32.667-7.185-11.4.846-25.936,2.156-35.053,6.781-3.436,15.988-10.23,54.925-13.169,70.471,26.777-6.752,58.944-6.752,80.894,1.9,22.217-8.489,52.55-8.489,80.883-1.9-2.939-15.546-9.733-54.483-13.169-70.471-9.117-4.625-23.208-6.6-34.608-7.448C177.143,251.934,166.4,254.568,155.562,260.642Z"/><path class="c" d="M156.571,258.916c-10.012-6.336-22-8.3-33.676-7.459-10.642.763-21.844,1.521-31.928,5.268-1.091.4-2.171.852-3.226,1.344a3.278,3.278,0,0,0-1.626,1.159,5.139,5.139,0,0,0-.423,1.516q-.495,2.35-.964,4.706-1.17,5.845-2.264,11.7c-1.729,9.166-3.4,18.343-5.061,27.521-1.541,8.5-3.055,17.01-4.659,25.5a2.026,2.026,0,0,0,2.46,2.46,160.578,160.578,0,0,1,31.9-4.616,139.244,139.244,0,0,1,30.964,1.827,94.308,94.308,0,0,1,13.941,3.576c1,.345,2,.853,3.024,1.116,1.206.312,2.793-.647,3.927-1.032q3.423-1.162,6.932-2.043a125.22,125.22,0,0,1,31.589-3.476,176.382,176.382,0,0,1,38.435,4.648,2.027,2.027,0,0,0,2.46-2.46c-3.1-16.421-5.956-32.889-9.024-49.316Q228.2,274.683,227,268.514q-.518-2.645-1.055-5.286c-.333-1.628-.371-4.016-1.965-4.872-4.525-2.43-9.79-3.757-14.779-4.816a145.7,145.7,0,0,0-16.6-2.42,65.914,65.914,0,0,0-19.195.613,64.943,64.943,0,0,0-18.859,7.183c-2.249,1.252-.234,4.708,2.019,3.453a57.585,57.585,0,0,1,26.469-7.718,94.732,94.732,0,0,1,13.227.85,123.624,123.624,0,0,1,13.083,2.161,56.377,56.377,0,0,1,12.922,4.3l-.919-1.2c4.082,19.033,7.286,38.266,10.765,57.415.791,4.354,1.582,8.708,2.4,13.056l2.46-2.46c-21.478-4.964-44.28-6.65-66.044-2.519a94.407,94.407,0,0,0-15.9,4.422H156.1c-9.54-3.734-19.768-5.552-29.95-6.361a159.763,159.763,0,0,0-33.4.959,164.632,164.632,0,0,0-18.608,3.5l2.46,2.46c3.6-19.045,6.866-38.151,10.512-57.188.849-4.434,1.711-8.868,2.657-13.283l-.919,1.2c7.395-3.7,16.1-4.806,24.227-5.659,8.959-.939,18.057-1.775,26.945.164a44.928,44.928,0,0,1,14.529,5.9C156.734,263.75,158.743,260.29,156.571,258.916Z"/><path class="c" d="M1.932,240.671q20.667,0,41.335-.046,4.713,0,9.424-.006c2.574,0,2.578-4,0-4q-21.044,0-42.088.046-4.336,0-8.671.006c-2.574,0-2.578,4,0,4Z"/><path class="c" d="M222.691,240.671q11.207,0,22.411-.018l30.084-.028q5.466,0,10.931-.006c2.574,0,2.578-4,0-4q-11.726,0-23.45.018l-29.795.028q-5.091,0-10.181.006c-2.574,0-2.578,4,0,4Z"/><path class="b" d="M270.756,72.629c-3.808,1.281-6.52,1.784-8.459,2.7a9.945,9.945,0,0,0-4.1,3.457,33.283,33.283,0,0,0-2.323,3.7c-.887,1.624-2.649,3.211-4.736,2.681-2.914-.74-4.209-1.709-4.437-3.942-.153-3.814,1.65-6.617,3.969-10.055,4.449-5.279,9.212-5.622,14.313-7.346a6.265,6.265,0,0,0,3.373-8.995c-1.535-2.966-5.61-4.306-8.4-3.5-2.434.568-3.592.936-7.773,4.664a4.871,4.871,0,0,1-3.5,1.023c-4.1-.331-4.514-3.972-4.213-5.717.519-4.609,3.853-7.384,8.553-9.685,8.615-4.219,22.557-.354,26.433,9.506C282.584,59.083,280.254,69.435,270.756,72.629Z"/><path class="b" d="M250.571,100.562a5.464,5.464,0,0,1-6.422,1.307,5.337,5.337,0,0,1-2.508-3.212,5.686,5.686,0,0,1,.782-5.085,5.414,5.414,0,0,1,6.96-.984A5.6,5.6,0,0,1,250.571,100.562Z"/><path class="c" d="M270.225,70.7c-2.877.955-5.931,1.54-8.7,2.792-3.09,1.4-5.074,4.026-6.756,6.879-.606,1.029-1.272,2.732-2.667,2.9a4.546,4.546,0,0,1-3.039-1.181c-.507-.573-.415-1.845-.262-2.745a13.316,13.316,0,0,1,1.921-4.592,15.489,15.489,0,0,1,7.078-6.525c2.579-1.144,5.4-1.593,8.027-2.588a8.4,8.4,0,0,0,3.018-13.532c-3.488-3.766-9.386-3.681-13.534-1.121a25.8,25.8,0,0,0-2.88,2.152c-1.235,1.027-2.166,2.15-3.923,1.852a2.3,2.3,0,0,1-1.907-1.42,6.755,6.755,0,0,0-.183-.744,4.978,4.978,0,0,1-.026-.623c0-.09.06-.891.006-.374.554-5.267,6.17-8.564,10.925-9.566a19.97,19.97,0,0,1,14.027,2.53,15.125,15.125,0,0,1,7.412,13.427c-.059,5.6-3.15,10.6-8.536,12.48-2.416.841-1.377,4.706,1.063,3.857A16.638,16.638,0,0,0,282.381,61.89a19.824,19.824,0,0,0-3.99-16.338c-3.729-4.47-9.5-6.9-15.194-7.505a21.793,21.793,0,0,0-16.482,5.228c-3.853,3.306-6.7,10.947-1.636,14.563a7.1,7.1,0,0,0,4.638,1.169c2.061-.19,3.406-1.213,4.919-2.512a19.036,19.036,0,0,1,3.194-2.347,3.623,3.623,0,0,1,.912-.416c.439-.143.88-.265,1.327-.376,2.384-.592,5.184.079,6.481,2.341a4.384,4.384,0,0,1-1.138,5.714,14.054,14.054,0,0,1-4.147,1.45,42.435,42.435,0,0,0-4.374,1.438,18.43,18.43,0,0,0-8.578,6.8c-2,3.022-3.92,6.506-3.595,10.267.282,3.264,2.874,5.069,5.888,5.729a5.856,5.856,0,0,0,5.2-1.377c1.357-1.158,2.05-2.8,2.993-4.268a11.219,11.219,0,0,1,3.565-3.9,15.657,15.657,0,0,1,3.662-1.411c1.759-.51,3.521-1,5.26-1.581C273.719,73.75,272.677,69.886,270.225,70.7Z"/><path class="c" d="M249.157,99.148c-.095.1-.192.206-.293.3-.066.062-.284.194-.31.275,0-.01.315-.223.135-.105-.056.037-.11.079-.166.116-.129.087-.262.167-.4.243-.115.064-.236.116-.352.178-.195.1.174-.086.178-.072s-.264.1-.244.089c-.265.09-.536.137-.806.208-.213.056.223-.024.219-.023-.062,0-.126.014-.188.019-.125.011-.25.018-.375.02s-.249,0-.373-.005c-.062,0-.123-.009-.185-.012a.989.989,0,1,0,.166.029,4.286,4.286,0,0,0-.709-.161c-.078-.023-.265-.131-.34-.117.01,0,.377.187.2.085-.071-.041-.151-.072-.223-.11-.124-.066-.244-.137-.361-.214a.848.848,0,0,0-.167-.116c.252.076.249.209.1.066-.2-.186-.372-.384-.557-.581-.141-.15.135.173.135.174-.009-.041-.074-.1-.1-.139-.058-.091-.118-.181-.174-.274-.108-.182-.2-.372-.294-.559-.149-.284.172.454.073.177-.024-.066-.051-.13-.074-.2-.037-.1-.071-.2-.1-.305a6.05,6.05,0,0,1-.159-.637c-.016-.08-.024-.163-.043-.242-.048-.2.042.355.039.309s-.012-.095-.016-.143c-.019-.228-.036-.454-.036-.683a4.927,4.927,0,0,0,.04-.7s-.079.437-.027.226c.015-.06.023-.124.036-.186.032-.147.07-.293.115-.438.019-.063.042-.125.062-.188.073-.227.11-.03-.048.1.08-.067.138-.279.193-.373a2.031,2.031,0,0,1,.236-.366c.013,0-.233.268-.089.119.057-.06.109-.126.166-.186.086-.09.175-.177.268-.26a.875.875,0,0,0,.14-.123s-.336.24-.16.123a7.143,7.143,0,0,1,.689-.423c.055-.028.113-.052.168-.081.188-.1-.193.078-.191.077a3.628,3.628,0,0,0,.353-.126c.261-.084.526-.133.793-.191.216-.048-.227.027-.22.028a2.166,2.166,0,0,0,.25-.022q.189-.012.378-.012c.126,0,.252,0,.378.013.063,0,.125.013.188.017.26.014-.41-.081-.157-.019s.492.1.734.183c.072.024.469.175.174.056s.14.079.217.122c.112.062.221.129.328.2.048.032.094.071.144.1.171.1-.171-.127-.174-.134.063.163.424.388.55.529.052.058.1.122.153.179.163.173-.214-.331-.1-.123.067.12.157.23.228.348s.139.242.2.366c.027.054.052.108.079.162.13.252-.066-.08-.059-.147a1.544,1.544,0,0,0,.141.4c.042.135.08.271.113.408s.05.28.083.417c.05.206-.031-.23-.03-.23a.916.916,0,0,0,.021.242,8.129,8.129,0,0,1-.006.855c0,.066-.038.284.009-.022.053-.348-.007.021-.022.1-.028.141-.062.281-.1.42s-.088.276-.136.413c-.108.31.178-.363-.027.04q-.1.2-.219.389c-.074.117-.41.555-.068.125a2.173,2.173,0,0,0-.586,1.414,2,2,0,0,0,3.415,1.415,7.6,7.6,0,0,0,1.75-4.537,7.815,7.815,0,0,0-1.1-4.245,7.26,7.26,0,0,0-8.143-3.184,6.92,6.92,0,0,0-5.114,7.167,7.933,7.933,0,0,0,2.562,5.579,7.388,7.388,0,0,0,10.05-.78,2,2,0,1,0-2.829-2.829Z"/><path class="b" d="M194.643,65.935a6.524,6.524,0,0,1,4.711-1.725,6.047,6.047,0,0,1,5.432,3.018c1.846,3.2,1.768,9.1.529,12.749-.877,2.585-2.315,6.539-5.78,9.374A7.182,7.182,0,0,1,194,90.95l-.621-.105c-.538,1.892-1.326,3.871-1.622,4.77-1.31,3.554-8.26,15.588-17.224,21.141v3.881c-2.831,3.806-9.294,8.558-17.04,11.674a4.368,4.368,0,0,0-1.506.852h-3.4a4.368,4.368,0,0,0-1.506-.852c-7.746-3.116-14.209-7.868-17.04-11.674v-3.628a38.5,38.5,0,0,1-10.485-9.118,44.173,44.173,0,0,1-9.226-17,7.1,7.1,0,0,1-5.809-1.545c-3.465-2.835-4.9-6.789-5.779-9.374-1.239-3.649-1.317-9.548.528-12.749A6.05,6.05,0,0,1,108.7,64.21a6.522,6.522,0,0,1,4.711,1.725s-7.294-42.25,40.706-42.25S194.643,65.935,194.643,65.935Z"/><path class="d" d="M136.555,4.936a46.109,46.109,0,0,0-11.7,6.237A48.089,48.089,0,0,0,104.7,48.908a52.338,52.338,0,0,0,1.921,15.641,7.8,7.8,0,0,1,2.077-.339,6.522,6.522,0,0,1,4.711,1.725l6.061-4.7c4.913-5.475,13.585-13.727,19.67-16.919.714-.374,1.63.132,1.919,1.325a7.845,7.845,0,0,1,.188,2.855,1.486,1.486,0,0,0,2.118,1.6c4.345-2.413,12.085-7.271,17.574-9.583a16.009,16.009,0,0,1,8.778,1.36,25.964,25.964,0,0,1,6.876,4.435c4.914,4.228,9.625,10.029,11.711,15.279l6.338,4.355a6.524,6.524,0,0,1,4.711-1.725,8.082,8.082,0,0,1,1.9.283,50.327,50.327,0,0,0,1.872-15.585c-.814-19.039-10.523-30.865-19.906-37.559A48.641,48.641,0,0,0,153.91,2.012,50.889,50.889,0,0,0,136.555,4.936Z"/><path class="c" d="M114.825,64.521a9.089,9.089,0,0,0-9.907-1.44,8.675,8.675,0,0,0-4.5,5.95c-1.554,5.983-.033,12.846,3.352,17.955,2.279,3.438,5.877,6.547,10.283,5.964a2.066,2.066,0,0,0,2-2c0-.971-.922-2.143-2-2-3.613.478-6.1-2.5-7.672-5.389a20.214,20.214,0,0,1-2.48-7.921c-.2-2.55-.186-5.861,1.472-7.99,1.315-1.687,4.753-1.975,6.619-.3,1.912,1.715,4.75-1.105,2.829-2.828Z"/><path class="c" d="M196.058,67.349c1.866-1.674,5.306-1.384,6.619.3,1.658,2.129,1.668,5.44,1.472,7.99a20.252,20.252,0,0,1-2.48,7.921c-1.568,2.892-4.06,5.866-7.672,5.389a2.009,2.009,0,0,0-2,2,2.052,2.052,0,0,0,2,2c7.267.961,11.733-7.151,13.433-13.035,1.467-5.079,1.53-13.073-3.427-16.354a9.025,9.025,0,0,0-10.774.96c-1.92,1.722.916,4.543,2.829,2.828Z"/><path class="c" d="M191.942,88.067a24.891,24.891,0,0,1-1.3,4.72c-.212.6-.437,1.2-.65,1.8-.071.2-.14.4-.211.6-.028.077-.206.5-.095.241.119-.28-.107.235-.142.309q-.126.269-.255.536c-.2.408-.407.811-.62,1.21-.521.975-1.076,1.931-1.656,2.872a50.633,50.633,0,0,1-10.811,12.771,20.33,20.33,0,0,1-8.136,4.223c-2.507.582-1.446,4.44,1.063,3.857,6.115-1.421,11.2-5.849,15.218-10.481A56.058,56.058,0,0,0,193,97.76a32.369,32.369,0,0,0,2.8-8.629,2.069,2.069,0,0,0-1.4-2.461,2.015,2.015,0,0,0-2.46,1.4Z"/><path class="c" d="M111.805,88.967a47.61,47.61,0,0,0,11.029,21.155c5.238,6.032,11.94,10.789,19.98,11.985a2.067,2.067,0,0,0,2.461-1.4,2.014,2.014,0,0,0-1.4-2.46c-7.442-1.107-13.367-5.372-18.215-10.956a43.452,43.452,0,0,1-10-19.39c-.539-2.516-4.4-1.452-3.857,1.063Z"/><path class="c" d="M182.1,8.175a53.2,53.2,0,0,0-49.274-3.886A50.9,50.9,0,0,0,105.25,34.513a53.237,53.237,0,0,0-.678,30.115c.644,2.49,4.5,1.434,3.857-1.064a49.425,49.425,0,0,1-.082-25.455,44.951,44.951,0,0,1,9.283-17.555A46.36,46.36,0,0,1,155.043,4.023a47.709,47.709,0,0,1,25.034,7.606c2.173,1.393,4.181-2.067,2.018-3.454Z"/><path class="c" d="M203.278,64.628a55.663,55.663,0,0,0,.738-24.84,48.183,48.183,0,0,0-8.262-18.84,50.18,50.18,0,0,0-6.916-7.653c-1.911-1.716-4.749,1.1-2.828,2.828a46.356,46.356,0,0,1,15.152,34.116,51.625,51.625,0,0,1-1.741,13.325c-.618,2.5,3.238,3.565,3.857,1.064Z"/><path class="c" d="M168.129,43.339a32.889,32.889,0,0,1,10.539,7.683,36.218,36.218,0,0,1,7.709,11.09,2.062,2.062,0,0,0,2.46,1.4,2.013,2.013,0,0,0,1.4-2.46,41.021,41.021,0,0,0-8.5-12.6,36.077,36.077,0,0,0-11.591-8.561,2.064,2.064,0,0,0-2.736.718,2.014,2.014,0,0,0,.718,2.736Z"/><path class="c" d="M120.885,62.646a91.248,91.248,0,0,1,16.458-14.91c.621-.417,1.254-.819,1.9-1.2.109-.063.625-.263.647-.385l-.841-.193.04.053c-.062.169.126.5.154.693.133.885-.1,1.773.069,2.649a3.546,3.546,0,0,0,1.547,2.341c1.749,1.111,3.334.231,4.915-.676s3.164-1.843,4.747-2.763a105.341,105.341,0,0,1,11.427-6.028,2.012,2.012,0,0,0,.717-2.736,2.052,2.052,0,0,0-2.736-.717,96.719,96.719,0,0,0-10.246,5.344c-1.653.953-3.3,1.922-4.947,2.88-.63.365-1.26.729-1.894,1.086.036-.02-.488.254-.487.273-.058-.776.911.2.869.244.144-.158.077-.852.076-1.076-.012-1.912-.506-4.294-2.49-5.083-1.771-.7-3.352.455-4.8,1.38a70.684,70.684,0,0,0-8.859,6.938,119.033,119.033,0,0,0-9.1,9.053c-1.719,1.908,1.1,4.746,2.828,2.828Z"/><path class="c" d="M149.451,104.416c.075-.074.246-.167.292-.258-.13.257-.374.256-.1.09.076-.046.149-.1.225-.144.172-.1.349-.2.53-.29.1-.05.205-.093.3-.144-.465.237-.032.017.068-.021a11.679,11.679,0,0,1,1.682-.477,9.948,9.948,0,0,1,1.989-.23c.41-.018.821-.022,1.232,0,.192.009.384.023.575.038.7.053-.154-.036.222.022a10.036,10.036,0,0,1,1.93.5c.051.019.486.195.226.084s.145.07.194.094c.219.105.434.219.645.339.387.22.758.466,1.125.72a2.019,2.019,0,0,0,2.736-.718,2.04,2.04,0,0,0-.718-2.736,13.229,13.229,0,0,0-8.412-2.321c-2.6.147-5.631.736-7.574,2.633a2,2,0,1,0,2.828,2.829Z"/><path class="c" d="M154.236,84.9a37.3,37.3,0,0,1,.881,4.03l-.071-.532a2.531,2.531,0,0,1,.015.557l.071-.532a1.342,1.342,0,0,1-.061.25l.2-.478a.97.97,0,0,1-.089.161l.313-.405a.812.812,0,0,1-.132.13l.405-.312a2.552,2.552,0,0,1-.319.168l.478-.2a2.354,2.354,0,0,1-.538.157l.531-.072a2.133,2.133,0,0,1-.5,0l.532.072c-.19-.027-.377-.073-.568-.1a2.211,2.211,0,0,0-1.541.2,2,2,0,0,0-.717,2.736,1.915,1.915,0,0,0,1.2.92c.427.057.842.166,1.277.185a4.061,4.061,0,0,0,1.875-.445,2.691,2.691,0,0,0,1.5-1.775,4.509,4.509,0,0,0-.019-1.921c-.22-1.3-.52-2.585-.854-3.858a2,2,0,0,0-3.857,1.063Z"/><path class="c" d="M167.051,76.259c-.02-1.97.785-4.229,2.6-5.174a4.464,4.464,0,0,1,6.215,3.176c.973,2.979-.557,6.953-3.958,7.3C169.131,81.717,167.007,78.87,167.051,76.259Z"/><path class="c" d="M132.706,76.272c-.021-1.97.785-4.228,2.6-5.174a4.464,4.464,0,0,1,6.215,3.176c.973,2.979-.557,6.954-3.959,7.3C134.786,81.73,132.662,78.884,132.706,76.272Z"/><path class="c" d="M131.11,67.766a6.386,6.386,0,0,1,.535-.465l-.405.312a6.88,6.88,0,0,1,1.468-.848l-.478.2a8.138,8.138,0,0,1,1.991-.537l-.531.071c.117-.016.235-.029.354-.041a2.154,2.154,0,0,0,1.414-.586,2,2,0,0,0,0-2.828,1.948,1.948,0,0,0-1.414-.586,10.491,10.491,0,0,0-3.116.751,8.456,8.456,0,0,0-2.646,1.728,2,2,0,0,0,0,2.828,2.01,2.01,0,0,0,1.414.586,2.108,2.108,0,0,0,1.414-.586Z"/><path class="b" d="M155.984,133.163a4.368,4.368,0,0,1,1.506-.852c7.746-3.116,14.209-7.868,17.04-11.674,2.591,2.382,3.541,4.264,5.116,7.3-3.745,14.727-9.7,30.359-14.491,44.545l-10.7,31.694-10.7-31.694c-4.838-14.325-10.864-30.126-14.6-44.981a21.154,21.154,0,0,1,4.892-6.865c2.831,3.806,9.294,8.558,17.04,11.674a4.368,4.368,0,0,1,1.506.852Z"/><path class="b" d="M149.511,189.543q-2.373-7.023-4.744-14.048c1.508-12.358,3.578-27.473,3.578-27.9,0-.767-1.227-5.855-1.561-7.55l-.05-.178c.58-.6,1.152-1.209,1.7-1.814,2.227-2.444,3.535-3.539,3.8-3.965.17-.272.53-.575.345-.92h3.4c-.186.345.175.648.345.92.266.426,1.575,1.521,3.8,3.965.561.616,1.143,1.232,1.733,1.847-.149.595-.232.928-.232.928-.235.94-1.707,5.641-1.732,7.015-.012.729,2.144,14.935,4.1,28.055q-4.774,14.142-9.551,28.284Z"/><path class="b" d="M153.878,202.478,144.767,175.5c1.508-12.358,3.578-27.473,3.578-27.9,0-.767-1.227-5.855-1.561-7.55,0,0-.02-.064-.053-.174.581-.605,1.154-1.212,1.706-1.818,2.227-2.444,3.535-3.539,3.8-3.965.17-.272.53-.575.345-.92l3.386.039c-.146.328.195.619.359.881.266.426,1.575,1.521,3.8,3.965.585.643,1.195,1.287,1.811,1.928l-.31.847c-.235.94-1.707,5.641-1.732,7.015-.012.729,2.144,14.935,4.1,28.055l-9.551,28.284Z"/><path class="c" d="M169.121,147.527a80.952,80.952,0,0,0,9.618-14.048c.654-1.233,1.275-2.483,1.873-3.744a5.7,5.7,0,0,0,.827-2.2,4.778,4.778,0,0,0-.823-2.06,23.479,23.479,0,0,0-4.672-6.255,2.038,2.038,0,0,0-3.141.405,27.621,27.621,0,0,1-6.776,5.935,51.468,51.468,0,0,1-5.072,2.976c-1.832.941-4,1.547-5.718,2.669-3.39,2.216.77,5.388,2.4,7.093,2.9,3.042,5.942,6.017,8.659,9.226,1.666,1.968,4.483-.874,2.828-2.828-2.189-2.587-4.653-4.923-6.962-7.4-1.007-1.08-2-2.165-3.051-3.207l-.972-.968c-.1-.1-.188-.2-.282-.307.453.5-.043-.095-.174-.332l.273,1.009.031-.331-.586,1.414c.563-.59,2-.9,2.77-1.244q1.422-.63,2.806-1.34a51.141,51.141,0,0,0,5.565-3.31,32.614,32.614,0,0,0,7.718-7.036l-3.141.405a22.855,22.855,0,0,1,4.6,6.5v-2.019a80.713,80.713,0,0,1-11.419,18.17C164.649,146.659,167.465,149.5,169.121,147.527Z"/><path class="c" d="M142.275,144.7a80.642,80.642,0,0,1-11.419-18.17v2.019a22.835,22.835,0,0,1,4.6-6.5l-3.141-.405a32.614,32.614,0,0,0,7.718,7.036,50.806,50.806,0,0,0,5.371,3.209q1.477.767,3,1.441c.774.343,2.206.654,2.77,1.244l-.586-1.414.031.331.273-1.009c-.093.167-.7.878-.174.332-.1.1-.182.21-.283.307-.294.286-.581.58-.872.869-1.081,1.074-2.112,2.191-3.15,3.306-2.308,2.478-4.773,4.813-6.963,7.4-1.654,1.953,1.162,4.8,2.829,2.828,2.674-3.158,5.669-6.074,8.516-9.076,1.63-1.718,5.985-4.992,2.539-7.243-1.656-1.083-3.751-1.669-5.522-2.57a51.588,51.588,0,0,1-5.1-2.964,27.875,27.875,0,0,1-6.943-6.046,2.038,2.038,0,0,0-3.141-.405,23.1,23.1,0,0,0-4.584,6.089,6.406,6.406,0,0,0-.875,1.96,4.17,4.17,0,0,0,.7,2.267q.939,1.992,1.966,3.94a80.836,80.836,0,0,0,9.617,14.048C141.1,149.5,143.919,146.66,142.275,144.7Z"/><path class="c" d="M148.871,149.485c3.563,0,7.126-.078,10.689-.08a2,2,0,0,0,0-4c-3.563,0-7.126.079-10.689.08a2,2,0,1,0,0,4Z"/><path class="c" d="M144.855,140.572c.277,1.379.6,2.749.906,4.123.141.641.282,1.282.411,1.926.057.284.109.569.163.854.089.476.048-.37.01.115-.122,1.555-.386,3.107-.589,4.653-1.02,7.772-2.047,15.543-3,23.325a2.011,2.011,0,0,0,2,2,2.049,2.049,0,0,0,2-2c.962-7.871,2-15.731,3.033-23.592a30.746,30.746,0,0,0,.545-4.524,20.557,20.557,0,0,0-.718-3.821c-.3-1.374-.629-2.743-.906-4.123-.506-2.522-4.363-1.454-3.857,1.064Z"/><path class="c" d="M165.738,174.066c-1.12-7.492-2.265-14.982-3.345-22.48q-.119-.825-.234-1.65c-.035-.247-.069-.493-.1-.74-.071-.519.008.078-.035-.258a7.56,7.56,0,0,1-.1-1.333q.018-.195-.006.054c.026-.152.055-.3.086-.456.057-.259.112-.518.173-.777.161-.676.342-1.348.527-2.018.282-1.019.6-2.03.865-3.053.646-2.494-3.211-3.558-3.857-1.064a52.031,52.031,0,0,0-1.756,7.042,19.47,19.47,0,0,0,.51,4.773c1.1,7.681,2.276,15.35,3.423,23.024a2.014,2.014,0,0,0,2.46,1.4,2.051,2.051,0,0,0,1.4-2.461Z"/><path class="c" d="M97.222,231.38c-1.958-2.937-3.943-5.86-6.111-8.648-.863-1.109-1.832-2.147-2.654-3.287a2.808,2.808,0,0,1-.768-2.158c.324-2.528,2.263-5.1,3.59-7.2,1.619-2.559,3.317-5.075,5.121-7.508a2.014,2.014,0,0,0-.718-2.736,2.046,2.046,0,0,0-2.736.717c-1.908,2.575-3.7,5.241-5.4,7.957-1.586,2.534-3.433,5.347-3.809,8.37-.379,3.061,1.727,5.2,3.523,7.394,2.368,2.888,4.442,6.016,6.511,9.12,1.421,2.132,4.887.131,3.454-2.019Z"/><path class="c" d="M61.538,219.852a50.243,50.243,0,0,1,16.967-1.135,2.013,2.013,0,0,0,2-2,2.046,2.046,0,0,0-2-2A53.544,53.544,0,0,0,60.474,216c-2.5.6-1.442,4.461,1.064,3.857Z"/><path class="c" d="M113.155,240.572q34.329-.032,68.659-.042l18.141-.008c2.573,0,2.578-4,0-4q-35.2.014-70.394.037l-16.406.013c-2.574,0-2.579,4,0,4Z"/><path class="c" d="M117.774,129.9c-5.849,2.525-11.768,4.883-17.624,7.39-5.442,2.33-11.137,4.6-16.055,7.942a41.491,41.491,0,0,0-11.6,11.863,159.628,159.628,0,0,0-8.026,14.957c-4.176,8.338-7.939,16.9-11.591,25.482-2.041,4.792-4.109,9.608-5.766,14.547a39,39,0,0,0-2.13,8.817,18.189,18.189,0,0,0,.655,6.12,37.7,37.7,0,0,0,7.549,13.974c3.105,3.8,7,7.348,11.685,9.03,2.427.872,3.472-2.992,1.063-3.857-3.658-1.314-6.763-4.311-9.265-7.221a35.016,35.016,0,0,1-6.635-11.212,17.649,17.649,0,0,1-1.1-5.775,25.985,25.985,0,0,1,1.549-7.312c1.486-4.8,3.464-9.451,5.415-14.073,3.537-8.38,7.237-16.713,11.227-24.888,2.185-4.478,4.5-8.915,6.9-13.279A39.456,39.456,0,0,1,84.3,149.99c4.937-3.832,10.922-6.249,16.616-8.712,6.263-2.71,12.609-5.224,18.875-7.928a2.013,2.013,0,0,0,.718-2.736,2.053,2.053,0,0,0-2.737-.718Z"/><path class="c" d="M91.074,172.153c1.123,16.446,2.636,32.863,3.931,49.3q.579,7.338,1.1,14.68c.178,2.554,4.18,2.574,4,0-1.192-17.068-2.73-34.11-4.076-51.166q-.505-6.4-.952-12.81c-.175-2.555-4.176-2.574-4,0Z"/><path class="c" d="M213.215,172.122q-.4,7.642-.91,15.28a2,2,0,0,0,4,0q.495-7.638.91-15.28a2,2,0,0,0-4,0Z"/><path class="c" d="M174.248,186.662c-2.262,3.739-4.587,7.439-6.94,11.12a2.017,2.017,0,0,0,.717,2.737,2.043,2.043,0,0,0,2.736-.718c2.354-3.681,4.679-7.381,6.94-11.12a2,2,0,1,0-3.453-2.019Z"/><path class="c" d="M156.383,204.714q5.494-16.271,10.985-32.541c3.377-9.942,7-19.8,10.188-29.807,1.8-5.66,3.46-11.368,4.817-17.152l-2.938,1.2a42.423,42.423,0,0,1,10.295,9.207c1.642,1.986,4.458-.858,2.829-2.828a45.62,45.62,0,0,0-11.1-9.833,2.017,2.017,0,0,0-2.938,1.2,308.742,308.742,0,0,1-9.286,30.5q-5.289,15.261-10.476,30.553-3.114,9.226-6.228,18.452c-.826,2.445,3.036,3.493,3.857,1.064Z"/><path class="c" d="M141.733,197.669a338.494,338.494,0,0,1-24.085-43.058,17.139,17.139,0,0,1-1.487-3.195c-.027-.124-.145-.316-.167-.119.01-.086.376-.4.485-.515q.563-.581,1.136-1.149c1.749-1.738,3.569-3.4,5.4-5.059a2.017,2.017,0,0,0-.4-3.142l-3.367-1.857-1.684-.928-.842-.465q-.689-.465-.258-.056l.273,1.009c-.008.181.317-.464.382-.575.188-.321.387-.637.593-.948.351-.53.721-1.048,1.113-1.549a41.006,41.006,0,0,1,3.406-3.786,40.14,40.14,0,0,1,7.248-5.871l-2.938-1.2a309.442,309.442,0,0,0,9.287,30.5q5.288,15.26,10.474,30.55l6.23,18.449c.819,2.426,4.684,1.385,3.857-1.064q-5.493-16.266-10.987-32.534c-3.375-9.943-7-19.8-10.185-29.808-1.8-5.662-3.461-11.37-4.819-17.155a2.017,2.017,0,0,0-2.938-1.2A44.974,44.974,0,0,0,116.1,133.093c-1.236,1.545-3.9,4.4-3.3,6.574.393,1.431,1.984,2.019,3.157,2.666l4.63,2.553-.4-3.141c-1.713,1.552-3.419,3.113-5.068,4.734-1.45,1.427-3.443,2.994-3.026,5.274a13.032,13.032,0,0,0,1.212,2.966q.738,1.59,1.49,3.174,1.479,3.115,3.011,6.206,5.8,11.685,12.473,22.906,3.851,6.435,8,12.683c1.416,2.136,4.882.135,3.454-2.019Z"/><path class="c" d="M167.69,215.106a4.228,4.228,0,0,1,.456.421,1.121,1.121,0,0,1,.215.251c.018.042-.262-.406-.172-.217.032.067.092.134.13.2.109.173.185.363.288.537s-.148-.29-.11-.261a.424.424,0,0,1,.049.132c.039.12.08.238.113.359a1.575,1.575,0,0,1,.126.6c0,.015-.053-.571-.038-.249,0,.047.008.094.011.141.008.127.011.253.01.379,0,.095,0,.19-.01.285,0,.047-.008.094-.011.142-.015.321.034-.264.038-.25a1.676,1.676,0,0,1-.137.648c-.03.106-.067.21-.1.315a.468.468,0,0,1-.049.133c-.035.025.213-.442.111-.261-.117.206-.207.421-.337.621a.879.879,0,0,1-.161.233c-.04.025.317-.369.166-.219-.045.044-.082.1-.125.143-.064.071-.131.139-.2.2-.049.045-.1.086-.151.132-.171.159.362-.257.167-.128s-.363.245-.557.35c-.1.056-.213.1-.319.158-.168.084.239-.1.242-.1a1.9,1.9,0,0,0-.192.072,5.59,5.59,0,0,1-.694.2c-.051.011-.277.021-.305.057.009-.012.547-.058.224-.032-.069.006-.137.013-.206.018a5.563,5.563,0,0,1-.671,0,1.469,1.469,0,0,1-.358-.031c-.041-.013.5.083.278.034-.083-.018-.168-.03-.251-.048a4.817,4.817,0,0,1-.635-.187c-.02-.007-.124-.062-.142-.054,0,0,.409.189.246.1-.118-.065-.241-.121-.357-.19s-.2-.126-.3-.193c-.273-.185.313.293.09.062-.156-.162-.306-.333-.463-.493.4.413.163.213.061.056-.06-.093-.117-.188-.171-.286-.045-.083-.085-.17-.129-.254-.071-.139-.051-.284.089.216-.017-.06-.046-.119-.067-.178a4.924,4.924,0,0,1-.167-.6.917.917,0,0,1-.06-.329c.013-.049.046.513.041.3,0-.063-.011-.128-.016-.191a5.365,5.365,0,0,1,0-.671c0-.095.019-.191.024-.286.012-.209-.023.33-.039.294a.838.838,0,0,1,.043-.236,5.433,5.433,0,0,1,.161-.6c.028-.083.184-.472.035-.119s.018-.027.06-.108c.1-.2.224-.383.345-.571.177-.272-.3.341-.078.1.086-.094.169-.192.26-.283.133-.132.468-.319-.022-.013.1-.064.2-.14.3-.2s.239-.141.362-.2c.047-.024.094-.046.141-.069.3-.15-.371.137-.142.058a7.012,7.012,0,0,1,.753-.226c.051-.012.1-.022.154-.032.382-.073-.122.051-.168.014.039.031.309-.029.367-.032a7.864,7.864,0,0,1,.841.018c.193.01-.272-.039-.272-.039a.841.841,0,0,0,.207.036c.137.026.272.058.406.095s.265.084.4.13c.065.022.248.1-.047-.023-.337-.141-.01,0,.044.03.108.055.214.115.317.179.133.081.569.425.062.02a2.176,2.176,0,0,0,1.415.586,2,2,0,0,0,1.414-3.415,7.157,7.157,0,0,0-8.27-.58,6.982,6.982,0,0,0-2.921,7.3,6.405,6.405,0,0,0,1.833,3.374,6.749,6.749,0,0,0,4.071,1.726,6.9,6.9,0,0,0,6.791-3.583c1.266-2.686.914-6.274-1.5-8.235a2.16,2.16,0,0,0-1.414-.585,2,2,0,0,0-1.415,3.414Z"/><path class="c" d="M152.524,203.645a49.478,49.478,0,0,0-1.914,17.227,144.02,144.02,0,0,0,2.745,17.783c.513,2.52,4.369,1.454,3.857-1.064a135.364,135.364,0,0,1-2.6-16.719,44.289,44.289,0,0,1-.028-7.49,50.4,50.4,0,0,1,1.8-8.673c.689-2.485-3.169-3.545-3.857-1.064Z"/><path class="b" d="M116.109,260.173c9.3-3.586.74-15.8-2.958-20.924-4.5-6.228-16.007-6.546-21.671-6.609-5.009-.056-12.39.6-16.46,3.86-2.84,2.28-6.952,6.09-8.842,10.59a12.1,12.1,0,0,0-.49,1.43c-.78,2.61,2.652,9.51,4.082,13.87,1.11,3.39,1.92,6.88,3.56,10.06,1.93,3.72,8.95,11.94,13.01,5.96l1.641-2.089c4.428,3.493,9.647,5.065,11.507-2.233,2.473.946,5.071.663,7.606-1.835Z"/><path class="c" d="M79.882,270.217a27.839,27.839,0,0,0,7.088,7.832c2.809,2.169,6.642,4.231,10.2,2.618,2.123-.963,3.3-3.081,4.012-5.2a2,2,0,0,0-3.857-1.063,5.6,5.6,0,0,1-.57,1.321,6.77,6.77,0,0,1-.4.629c.25-.343-.178.186-.238.245-.088.088-.61.456-.192.192-.166.1-.346.2-.509.3-.242.16.316-.05-.192.062-.126.027-.753.125-.171.069a6,6,0,0,1-1.183-.007c.56.057-.124-.04-.235-.067-.211-.05-.42-.11-.626-.177s-.424-.148-.632-.233c.427.175-.248-.123-.32-.159-.411-.205-.811-.431-1.2-.673a21.906,21.906,0,0,1-4.467-3.768q-.52-.549-1.014-1.124-.237-.276-.466-.556c-.049-.06-.5-.639-.226-.277a18.469,18.469,0,0,1-1.342-1.985c-1.289-2.227-4.747-.215-3.454,2.019Z"/><path class="c" d="M87.3,264.657c2.476,3.723,5.265,7.525,9.039,10.03a10.317,10.317,0,0,0,5.915,1.9,9.548,9.548,0,0,0,6.259-2.917c1.86-1.787-.971-4.613-2.829-2.828a7.021,7.021,0,0,1-2.094,1.458,3.933,3.933,0,0,1-1.859.282,8.1,8.1,0,0,1-1.775-.447,11.259,11.259,0,0,1-2.185-1.31c-2.8-2.1-5.055-5.234-7.017-8.184-1.419-2.134-4.885-.133-3.454,2.019Z"/><path class="c" d="M84.613,277.4a2.14,2.14,0,0,1-2.806.924,10.319,10.319,0,0,1-3.767-2.8c-2.834-2.984-4.174-6.582-5.354-10.474-1.293-4.265-3.133-8.316-4.461-12.562a14.619,14.619,0,0,1-.615-2.45,2.716,2.716,0,0,1,.225-1.7,17.938,17.938,0,0,1,3.691-5.817c2.782-3.136,5.809-5.737,9.923-6.822a41.721,41.721,0,0,1,11.666-1.034c6.477.15,14.772.625,18.878,6.384a40.47,40.47,0,0,1,5.535,9.634,9.919,9.919,0,0,1,.722,4.5,3.969,3.969,0,0,1-2.673,3.061,2.063,2.063,0,0,0-1.4,2.46,2.013,2.013,0,0,0,2.46,1.4,8.71,8.71,0,0,0,4.753-3.858,9.249,9.249,0,0,0,.734-5.735c-.587-3.911-2.736-7.587-4.873-10.846a42.258,42.258,0,0,0-3.231-4.512,14.838,14.838,0,0,0-5.257-3.705,37.183,37.183,0,0,0-12.945-2.674,56.379,56.379,0,0,0-13.089.559,22.954,22.954,0,0,0-7.087,2.358,26.238,26.238,0,0,0-5.62,4.6c-3.293,3.313-7.121,7.976-6.251,12.949a35.184,35.184,0,0,0,2.156,6.621c.931,2.381,1.833,4.747,2.577,7.195A41.982,41.982,0,0,0,71.9,274a22.978,22.978,0,0,0,4.042,5.088,11.605,11.605,0,0,0,5.747,3.321c2.7.454,4.841-.835,6.376-2.991a2.016,2.016,0,0,0-.717-2.736,2.044,2.044,0,0,0-2.737.717Z"/><path class="c" d="M110.788,258.09c.767,1.392,9.964,18.513,14.118,25.619a2.87,2.87,0,0,0,3.977,1h0a2.87,2.87,0,0,0,1.084-3.725c-5.894-11.93-25.881-50.8-31.087-59.658-1.049-1.786-2.121-1.825-3.237-1.295a37.6,37.6,0,0,0-3.454,1.915c-1.219.811-1.623,1.761-.989,2.93,2.858,5.269,7.419,12.2,10.883,17.572,2.92,4.53,6.214,10.848,8.7,15.642"/><path class="b" d="M111.861,260.04c2.283,3.177,3.905,6.388,6.421,9.3,2.168,2.511,4.6,4.8,4.633,6.487.076,3.878-2.813,4.866-6.09,2.781a55.035,55.035,0,0,1-6.884-5.3c-4.872-4.547-9.87-10.315-11.187-11.154Z"/><path class="c" d="M110.134,261.049c2.373,3.34,4.321,6.949,7.03,10.046a25.178,25.178,0,0,1,3.516,4.234,2.16,2.16,0,0,1-.161,2.186c-.575.458-1.879-.134-2.684-.634-1.092-.679-2.136-1.447-3.163-2.218a72.415,72.415,0,0,1-8.372-7.783c-2.065-2.137-4.051-4.772-6.537-6.449-2.139-1.444-4.143,2.02-2.019,3.454.247.166-.094-.081-.115-.1.079.067.162.131.238.2.191.18.387.354.577.535.516.495,1.014,1.009,1.511,1.522,1.367,1.411,2.714,2.84,4.084,4.248a72.952,72.952,0,0,0,9.758,8.662c2.451,1.757,5.743,3.876,8.741,2.014a5.53,5.53,0,0,0,2.357-4.449c.155-1.993-.882-3.553-2.082-5.042-1.568-1.946-3.361-3.678-4.8-5.734-1.534-2.2-2.876-4.527-4.43-6.714-1.48-2.081-4.95-.085-3.454,2.019Z"/><path class="c" d="M189.855,133.829c8.656,4.126,17.843,7.1,26.421,11.382a24.82,24.82,0,0,1,7.894,5.756,22.235,22.235,0,0,1,4.3,8.807c.682,2.478,4.542,1.426,3.857-1.064a24.977,24.977,0,0,0-8.99-13.9,40.42,40.42,0,0,0-7.912-4.387c-3.745-1.672-7.547-3.216-11.343-4.768-4.1-1.678-8.2-3.367-12.2-5.275-2.312-1.1-4.344,2.345-2.019,3.454Z"/><path class="b" d="M155.012,124.8a4.314,4.314,0,0,1,2.713-2c-2.178-3.721.434-5.784,3.949-8.251,1.813-1.272,4.28-2.583,5.858-2.353,6.938,1.015,17.653,6.206,21.262,12.362,3.149,7.507,2.326,14.8,3.808,23.332.661,3.805,2.7,5.88,3.11,8.333a158.724,158.724,0,0,0-18.375,5.5,13.028,13.028,0,0,1-8.01-7.44,22.326,22.326,0,0,1-.8-7.929c-2.3.067-4.363,0-6.7-.076-2.289-.078-3.044-1.6-3.332-3.271a4.941,4.941,0,0,1,.951-3.565s.181-.221.433-.521c-1.563.141-3.11-1.7-3.484-3.565a3.439,3.439,0,0,1,1.752-3.807l-.245-.029c-2.175-.262-3.219-2.478-3.382-3.723A4.806,4.806,0,0,1,155.012,124.8Z"/><path class="c" d="M197.515,155.115c-.662-2.27-2.082-4.223-2.706-6.51a50.772,50.772,0,0,1-1.176-9.178c-.237-2.9-.471-5.8-.98-8.666-.464-2.617-1.076-5.722-2.6-7.948-2.754-4.027-7.092-6.905-11.414-9.015a43.878,43.878,0,0,0-6.685-2.645c-2.212-.66-4.618-1.354-6.89-.625a21.323,21.323,0,0,0-7.817,4.958,6.448,6.448,0,0,0-1.57,7.716,2.013,2.013,0,0,0,2.736.717,2.051,2.051,0,0,0,.718-2.736c-.732-1.7.93-2.962,2.131-3.884,1.546-1.187,3.78-3.062,5.83-3.127,1.733-.056,3.792.8,5.405,1.359a38.684,38.684,0,0,1,5.744,2.556,31.213,31.213,0,0,1,5.2,3.443,13.194,13.194,0,0,1,3.667,4.171c2.117,4.589,2.206,10.077,2.627,15.017a50.2,50.2,0,0,0,1.212,8.95c.628,2.292,2.046,4.25,2.706,6.51.719,2.466,4.58,1.417,3.857-1.063Z"/><path class="c" d="M168.824,118.421c-2.6.489-5.188,1.023-7.772,1.584-2.358.513-5.082.753-6.853,2.577-3.188,3.284-1.707,10.131,3.172,10.865a2.064,2.064,0,0,0,2.46-1.4,2.014,2.014,0,0,0-1.4-2.46,3.4,3.4,0,0,1-.763-.184c.315.126-.1-.085-.182-.131-.353-.2.086.149-.155-.135-.059-.07-.483-.622-.251-.264-.092-.143-.185-.284-.267-.433-.036-.067-.254-.561-.075-.108a7.062,7.062,0,0,1-.274-.951c.123.5.012-.006.007-.135-.008-.209,0-.415.011-.624.013-.15.006-.117-.021.1.018-.113.041-.226.068-.338a4.919,4.919,0,0,1,.149-.489c-.149.421.084-.118.131-.209.044-.073.09-.145.14-.214-.14.176-.136.176.014,0,.132-.122.247-.254.389-.366-.3.237.229-.118.3-.157a3.83,3.83,0,0,1,1.034-.342c.543-.128,1.092-.237,1.637-.356q1.446-.317,2.893-.63,3.326-.714,6.667-1.344a2.02,2.02,0,0,0,1.4-2.461,2.043,2.043,0,0,0-2.46-1.4Z"/><path class="c" d="M169.728,126.981c-2.358.489-4.736.876-7.1,1.327-2.3.438-4.967.72-6.719,2.439a5.6,5.6,0,0,0-1.336,5.562A7.1,7.1,0,0,0,156.7,139.7a5.129,5.129,0,0,0,1.877,1.066,5.56,5.56,0,0,0,2.462,0c1.269-.191,2.537-.394,3.807-.58q.486-.071.973-.138c-.044.006-.269.035-.028,0l.522-.067c.8-.1,1.6-.191,2.406-.276a2.059,2.059,0,0,0,2-2,2.014,2.014,0,0,0-2-2c-2.141.226-4.274.515-6.4.842-.5.077-1,.155-1.5.231l-.841.128-.209.031c.1-.015.061-.017-.131-.007l.18.025c-.009.02-.31-.114-.107-.011s-.138-.076-.183-.1a2.167,2.167,0,0,1-.243-.16c.1.083.142.147-.056-.083-.044-.051-.351-.41-.232-.248a4.589,4.589,0,0,1-.444-.757c.1.2-.045-.118-.05-.135-.034-.1-.066-.209-.095-.315a1.738,1.738,0,0,0-.086-.37c-.085-.153.064.22.03.256.038-.04-.023-.332-.023-.407,0-.116.063-.6,0-.28-.066.352.05-.149.07-.229s.062-.164.084-.248c-.013.049-.191.305-.066.173a2.516,2.516,0,0,0,.252-.416c-.218.36.041,0,.186-.15.026-.027.235-.182.05-.047-.207.151.1-.056.15-.084.079-.044.566-.287.288-.172a8.764,8.764,0,0,1,1.4-.393c1.017-.232,2.041-.435,3.066-.629,2.328-.442,4.668-.825,6.989-1.306a2,2,0,1,0-1.063-3.857Z"/><path class="b" d="M200.578,157.207c-.257-.641-.516-1.258-.783-1.83-8.863,1.588-23.147,6.092-28.312,8.853.492,1.545,1.126,4.328,1.845,6.413l.219.636c4-1.626,9.083-3.371,14.288-4.917s10.517-2.9,14.934-3.742C201.979,160.938,201.289,158.982,200.578,157.207Z"/><path class="c" d="M157.72,138.431a6.734,6.734,0,0,0,.438,8.4c1.209,1.227,2.85,1.425,4.485,1.478,1.963.063,3.925.1,5.888.048l-2-2a20.02,20.02,0,0,0,1.292,9.47,14.954,14.954,0,0,0,6.974,7.007c2.3,1.134,4.33-2.315,2.019-3.454a11.268,11.268,0,0,1-5.539-5.572c-.87-2.051-.9-5.065-.746-7.451a2.017,2.017,0,0,0-2-2c-1.37.036-2.74.033-4.111,0-.911-.02-2.447.216-3.257-.23-1.072-.59-.787-2.613.011-3.675a2.012,2.012,0,0,0-.717-2.736,2.049,2.049,0,0,0-2.737.717Z"/><path class="c" d="M204.239,161.06c-.932-2.221-1.715-4.5-2.718-6.692a2.033,2.033,0,0,0-2.258-.92,129.911,129.911,0,0,0-15.72,4.043,78.156,78.156,0,0,0-13.069,5.012,2.019,2.019,0,0,0-.919,2.258c.659,2.126,1.134,4.3,1.844,6.414.817,2.427,4.681,1.386,3.857-1.063-.71-2.111-1.185-4.288-1.844-6.414l-.919,2.259a73.507,73.507,0,0,1,12.469-4.72,128.956,128.956,0,0,1,15.364-3.931l-2.258-.92c.857,1.876,1.516,3.836,2.314,5.737a2.067,2.067,0,0,0,2.46,1.4,2.013,2.013,0,0,0,1.4-2.46Z"/><path class="c" d="M153.619,269.651c0,16.267-.168,32.534-.169,48.8,0,2.574,4,2.578,4,0,0-16.267.167-32.534.169-48.8,0-2.574-4-2.578-4,0Z"/><path class="c" d="M221.2,199.28c-4.158-10.534-8.408-21.039-12.869-31.449-.92-2.147-1.847-4.294-2.843-6.409a2.036,2.036,0,0,0-2.258-.919,150.387,150.387,0,0,0-32.578,9.842,2.011,2.011,0,0,0-.919,2.259c3.465,12.771,6.816,25.649,11.12,38.17a98.157,98.157,0,0,0,7.755,17.309c2.888,4.982,6.52,10.044,11.6,12.983,3.707,2.145,7.976,2.282,12.139,1.79,5.328-.63,10.063-2.415,13.881-6.281,4.08-4.132,5.611-9.586,6.532-15.167a167.881,167.881,0,0,0,2.153-21.4c.258-7.33.022-14.665-.424-21.984a137.52,137.52,0,0,0-2.182-19.392c-.517-2.52-4.374-1.453-3.857,1.064a116.376,116.376,0,0,1,1.876,15.781c.411,6.175.707,12.36.7,18.55A167.258,167.258,0,0,1,229.85,213.8c-.69,5.7-1.174,12.157-4.251,17.166a16.5,16.5,0,0,1-10.391,7.37c-3.716.884-8.172,1.355-11.621-.034-4.372-1.76-7.884-6.347-10.4-10.376a87,87,0,0,1-7.711-16.081c-2.391-6.486-4.272-13.173-6.179-19.812q-2.935-10.221-5.7-20.489l-.919,2.259a137.2,137.2,0,0,1,15.226-5.37,152.614,152.614,0,0,1,16.4-4.069l-2.258-.919c4.47,9.493,8.268,19.335,12.182,29.065q1.573,3.914,3.126,7.838a2.059,2.059,0,0,0,2.46,1.4,2.013,2.013,0,0,0,1.4-2.46Z"/></svg>